<svg xmlns="http://www.w3.org/2000/svg" xmlns:xlink="http://www.w3.org/1999/xlink" width="110" height="110" viewBox="0 0 110 110"><defs><clipPath id="a"><path d="M104.343 55A49.343 49.343 0 0 1 55 104.343 49.343 49.343 0 0 1 5.657 55a49.343 49.343 0 0 1 98.686 0"/></clipPath></defs><path fill="#2314a1" d="M108.429 55a53.429 53.429 0 0 1 -53.429 53.429A53.429 53.429 0 0 1 1.571 55a53.429 53.429 0 0 1 106.857 0"><animate attributeName="r" calcMode="spline" keySplines="0.3 0 0.7 1;0.3 0 0.7 1" values="170;175;170" dur="5s" repeatCount="indefinite"/></path><path fill="#4294fe" d="M104.343 55A49.343 49.343 0 0 1 55 104.343 49.343 49.343 0 0 1 5.657 55a49.343 49.343 0 0 1 98.686 0"/><g clip-path="url(#a)"><g><g id="b" fill="#43d8aa"><path d="M4.4 31.743v3.771A1.886 1.886 0 0 1 6.286 37.4 1.886 1.886 0 0 1 4.4 39.286v3.771h12.571V39.286a1.886 1.886 0 0 1 -1.886 -1.886 1.886 1.886 0 0 1 1.886 -1.886v-3.771zm23.571 55.629v2.514a2.357 2.357 0 0 1 2.357 2.357 2.357 2.357 0 0 1 -2.357 2.357V97.429h10.057v-2.829a2.357 2.357 0 0 1 -2.357 -2.357 2.357 2.357 0 0 1 2.357 -2.357v-2.514zM66.629 2.829h6.914a4.714 4.714 0 0 1 4.714 4.714 4.714 4.714 0 0 1 -4.714 4.714h-6.914a4.714 4.714 0 0 1 -4.714 -4.714 4.714 4.714 0 0 1 4.714 -4.714"/><path d="M-1.886 17.914h29.543a8.8 8.8 0 0 1 8.8 8.8 8.8 8.8 0 0 1 -8.8 8.8H-1.886A8.8 8.8 0 0 1 -10.686 26.714a8.8 8.8 0 0 1 8.8 -8.8m61.914 7.543h11a4.714 4.714 0 0 1 4.714 4.714 4.714 4.714 0 0 1 -4.714 4.714h-11a4.714 4.714 0 0 1 -4.714 -4.714 4.714 4.714 0 0 1 4.714 -4.714M5.186 39.286h13.514a6.129 6.129 0 0 1 6.129 6.129 6.129 6.129 0 0 1 -6.129 6.129H5.186a6.129 6.129 0 0 1 -6.129 -6.129A6.129 6.129 0 0 1 5.186 39.286m64.271 4.4h41.171a10.057 10.057 0 0 1 10.057 10.057 10.057 10.057 0 0 1 -10.057 10.057H69.457a10.057 10.057 0 0 1 -10.057 -10.057 10.057 10.057 0 0 1 10.057 -10.057M84.857 68.514h18.857a6.286 6.286 0 0 1 6.286 6.286 6.286 6.286 0 0 1 -6.286 6.286H84.857a6.286 6.286 0 0 1 -6.286 -6.286 6.286 6.286 0 0 1 6.286 -6.286M3.457 72.286H42.429a8.8 8.8 0 0 1 8.8 8.8 8.8 8.8 0 0 1 -8.8 8.8H3.457a8.8 8.8 0 0 1 -8.8 -8.8A8.8 8.8 0 0 1 3.457 72.286m18.857 22.314H45.571a4.714 4.714 0 0 1 4.714 4.714 4.714 4.714 0 0 1 -4.714 4.714H22.314a4.714 4.714 0 0 1 -4.714 -4.714 4.714 4.714 0 0 1 4.714 -4.714"/></g><use transform="translate(400)" xlink:href="#b"/><animateTransform attributeName="transform" attributeType="XML" type="translate" from="0 0" to="-400 0" dur="15s" repeatCount="indefinite"/></g><g><g id="c" fill="#e6ebfc"><path d="M76.057 27.343v1.895l0.119 -0.009a0.943 0.943 0 0 1 0.943 0.943 0.943 0.943 0 0 1 -0.943 0.943l-0.119 -0.009V33H81.714v-1.886a0.943 0.943 0 0 1 -0.943 -0.943 0.943 0.943 0 0 1 0.943 -0.943v-1.886zM92.714 26.714v1.257a1.571 1.571 0 0 1 0 3.143v1.257h9.429v-1.257a1.571 1.571 0 0 1 0 -3.143V26.714zM15.086 65.686V67.571a1.414 1.414 0 1 1 0 2.829v0.943h9.114v-0.943a1.414 1.414 0 1 1 0 -2.829v-1.886zM25.457 20.429v0.943a1.1 1.1 0 1 1 0 2.2v0.629h5.029V23.571a1.1 1.1 0 1 1 0 -2.2V20.429zm5.657 56.886v1.257a1.571 1.571 0 0 1 0 3.143v1.257h9.429V81.714a1.571 1.571 0 0 1 0 -3.143v-1.257z"/><path d="M22.943 15.714h11a2.829 2.829 0 0 1 2.829 2.829 2.829 2.829 0 0 1 -2.829 2.829h-11a2.829 2.829 0 0 1 -2.829 -2.829 2.829 2.829 0 0 1 2.829 -2.829m67.257 0.943h13.829a5.657 5.657 0 0 1 5.657 5.657 5.657 5.657 0 0 1 -5.657 5.657h-13.829a5.657 5.657 0 0 1 -5.657 -5.657 5.657 5.657 0 0 1 5.657 -5.657M3.457 23.571h28.286a3.457 3.457 0 0 1 3.457 3.457 3.457 3.457 0 0 1 -3.457 3.457h-28.286A3.457 3.457 0 0 1 0 27.029 3.457 3.457 0 0 1 3.457 23.571m72.286 2.514h6.914a1.571 1.571 0 0 1 1.571 1.571 1.571 1.571 0 0 1 -1.571 1.571h-6.914a1.571 1.571 0 0 1 -1.571 -1.571 1.571 1.571 0 0 1 1.571 -1.571m-0.629 5.029h27.657a3.771 3.771 0 0 1 3.771 3.771 3.771 3.771 0 0 1 -3.771 3.771H75.114a3.771 3.771 0 0 1 -3.771 -3.771 3.771 3.771 0 0 1 3.771 -3.771m-26.714 0.943h6.286a2.514 2.514 0 0 1 2.514 2.514 2.514 2.514 0 0 1 -2.514 2.514h-6.286a2.514 2.514 0 0 1 -2.514 -2.514 2.514 2.514 0 0 1 2.514 -2.514m-6.286 22h10.057a4.714 4.714 0 0 1 4.714 4.714 4.714 4.714 0 0 1 -4.714 4.714h-10.057a4.714 4.714 0 0 1 -4.714 -4.714 4.714 4.714 0 0 1 4.714 -4.714m-39.286 7.857h22.629a2.829 2.829 0 0 1 2.829 2.829 2.829 2.829 0 0 1 -2.829 2.829H2.829A2.829 2.829 0 0 1 0 64.743a2.829 2.829 0 0 1 2.829 -2.829m68.514 30.171h4.4a2.514 2.514 0 0 1 2.514 2.514 2.514 2.514 0 0 1 -2.514 2.514h-4.4a2.514 2.514 0 0 1 -2.514 -2.514 2.514 2.514 0 0 1 2.514 -2.514M13.829 70.4h28.914a4.086 4.086 0 0 1 4.086 4.086 4.086 4.086 0 0 1 -4.086 4.086H13.829a4.086 4.086 0 0 1 -4.086 -4.086 4.086 4.086 0 0 1 4.086 -4.086M29.857 81.714h12.886a5.657 5.657 0 0 1 5.657 5.657 5.657 5.657 0 0 1 -5.657 5.657H29.857a5.657 5.657 0 0 1 -5.657 -5.657A5.657 5.657 0 0 1 29.857 81.714m45.257 1.257h6.914a3.457 3.457 0 0 1 3.457 3.457 3.457 3.457 0 0 1 -3.457 3.457h-6.914a3.457 3.457 0 0 1 -3.457 -3.457 3.457 3.457 0 0 1 3.457 -3.457"/></g><use transform="translate(400)" xlink:href="#c"/><animateTransform attributeName="transform" attributeType="XML" type="translate" from="0 0" to="-400 0" dur="10s" repeatCount="indefinite"/></g></g></svg>