<svg xmlns="http://www.w3.org/2000/svg" xmlns:xlink="http://www.w3.org/1999/xlink" version="1.1" width="135" height="135" viewBox="0 0 135 135"><defs><clipPath id="clip"><path cx="175" cy="175" r="157" d="M128.057 67.5A60.557 60.557 0 0 1 67.5 128.057A60.557 60.557 0 0 1 6.943 67.5A60.557 60.557 0 0 1 128.057 67.5z"/></clipPath></defs><path cx="175" cy="175" r="170" fill="#2314a1" d="M133.071 67.5A65.571 65.571 0 0 1 67.5 133.071A65.571 65.571 0 0 1 1.929 67.5A65.571 65.571 0 0 1 133.071 67.5z"><animate attributeName="r" calcMode="spline" keySplines="0.3 0 0.7 1;0.3 0 0.7 1" values="170;175;170" dur="5s" repeatCount="indefinite"/></path><path cx="175" cy="175" r="157" fill="#4294fe" d="M128.057 67.5A60.557 60.557 0 0 1 67.5 128.057A60.557 60.557 0 0 1 6.943 67.5A60.557 60.557 0 0 1 128.057 67.5z"/><g clip-path="url(#clip)"><g><g id="land" fill="#43d8aa"><path d="M5.4 38.957v4.629a2.314 2.314 0 0 1 2.314 2.314 2.314 2.314 0 0 1 -2.314 2.314v4.629h15.429v-4.629a2.314 2.314 0 0 1 -2.314 -2.314 2.314 2.314 0 0 1 2.314 -2.314v-4.629zm28.929 68.271v3.086a2.893 2.893 0 0 1 2.893 2.893A2.893 2.893 0 0 1 34.329 116.1v3.471h12.343v-3.471a2.893 2.893 0 0 1 -2.893 -2.893 2.893 2.893 0 0 1 2.893 -2.893v-3.086z"/><path y="9" x="197" width="52" height="30" rx="15" ry="15" d="M81.771 3.471H90.257A5.786 5.786 0 0 1 96.043 9.257V9.257A5.786 5.786 0 0 1 90.257 15.043H81.771A5.786 5.786 0 0 1 75.986 9.257V9.257A5.786 5.786 0 0 1 81.771 3.471z"/><path y="57" x="-34" width="150" height="56" rx="28" ry="28" d="M-2.314 21.986H33.943A10.8 10.8 0 0 1 44.743 32.786V32.786A10.8 10.8 0 0 1 33.943 43.586H-2.314A10.8 10.8 0 0 1 -13.114 32.786V32.786A10.8 10.8 0 0 1 -2.314 21.986z"/><path y="81" x="176" width="65" height="30" ry="15" rx="15" d="M73.671 31.243H87.171A5.786 5.786 0 0 1 92.957 37.029V37.029A5.786 5.786 0 0 1 87.171 42.814H73.671A5.786 5.786 0 0 1 67.886 37.029V37.029A5.786 5.786 0 0 1 73.671 31.243z"/><path y="125" x="-3" width="82" height="39" ry="19.5" rx="19.5" d="M6.364 48.214H22.95A7.521 7.521 0 0 1 30.471 55.736V55.736A7.521 7.521 0 0 1 22.95 63.257H6.364A7.521 7.521 0 0 1 -1.157 55.736V55.736A7.521 7.521 0 0 1 6.364 48.214z"/><path y="139" x="189" width="195" height="64" rx="32" ry="32" d="M85.243 53.614H135.771A12.343 12.343 0 0 1 148.114 65.957V65.957A12.343 12.343 0 0 1 135.771 78.3H85.243A12.343 12.343 0 0 1 72.9 65.957V65.957A12.343 12.343 0 0 1 85.243 53.614z"/><path y="218" x="250" width="100" height="40" rx="20" ry="20" d="M104.143 84.086H127.286A7.714 7.714 0 0 1 135 91.8V91.8A7.714 7.714 0 0 1 127.286 99.514H104.143A7.714 7.714 0 0 1 96.429 91.8V91.8A7.714 7.714 0 0 1 104.143 84.086z"/><path y="230" x="-17" width="180" height="56" ry="28" rx="28" d="M4.243 88.714H52.071A10.8 10.8 0 0 1 62.871 99.514V99.514A10.8 10.8 0 0 1 52.071 110.314H4.243A10.8 10.8 0 0 1 -6.557 99.514V99.514A10.8 10.8 0 0 1 4.243 88.714z"/><path y="301" x="56" width="104" height="30" rx="15" ry="15" d="M27.386 116.1H55.929A5.786 5.786 0 0 1 61.714 121.886V121.886A5.786 5.786 0 0 1 55.929 127.671H27.386A5.786 5.786 0 0 1 21.6 121.886V121.886A5.786 5.786 0 0 1 27.386 116.1z"/></g><use transform="translate(400)" xlink:href="#land"/><animateTransform attributeName="transform" attributeType="XML" type="translate" from="0 0" to="-400 0" dur="15s" repeatCount="indefinite"/></g><g><g id="clouds" fill="#e6ebfc"><path d="M93.343 33.557v2.326a1.157 1.157 0 0 1 0.147 -0.012 1.157 1.157 0 0 1 1.157 1.157 1.157 1.157 0 0 1 -1.157 1.157 1.157 1.157 0 0 1 -0.147 -0.012V40.5h6.943v-2.314a1.157 1.157 0 0 1 -1.157 -1.157 1.157 1.157 0 0 1 1.157 -1.157v-2.314zm20.443 -0.771v1.543a1.929 1.929 0 0 1 0 3.857v1.543h11.571v-1.543a1.929 1.929 0 0 1 0 -3.857v-1.543zM18.514 80.614v2.314a1.736 1.736 0 1 1 0 3.471v1.157h11.186v-1.157a1.736 1.736 0 1 1 0 -3.471v-2.314zM31.243 25.071v1.157a1.35 1.35 0 1 1 0 2.7v0.771h6.171v-0.771a1.35 1.35 0 1 1 0 -2.7v-1.157zm6.943 69.814v1.543a1.929 1.929 0 0 1 0 3.857v1.543h11.571v-1.543a1.929 1.929 0 0 1 0 -3.857v-1.543z"/><path y="50" x="64" width="53" height="18" rx="9" ry="9" d="M28.157 19.286H41.657A3.471 3.471 0 0 1 45.129 22.757V22.757A3.471 3.471 0 0 1 41.657 26.229H28.157A3.471 3.471 0 0 1 24.686 22.757V22.757A3.471 3.471 0 0 1 28.157 19.286z"/><path y="53" x="269" width="80" height="36" rx="18" ry="18" d="M110.7 20.443H127.671A6.943 6.943 0 0 1 134.614 27.386V27.386A6.943 6.943 0 0 1 127.671 34.329H110.7A6.943 6.943 0 0 1 103.757 27.386V27.386A6.943 6.943 0 0 1 110.7 20.443z"/><path y="75" x="0" width="112" height="22" rx="11" ry="11" d="M4.243 28.929H38.957A4.243 4.243 0 0 1 43.2 33.171V33.171A4.243 4.243 0 0 1 38.957 37.414H4.243A4.243 4.243 0 0 1 0 33.171V33.171A4.243 4.243 0 0 1 4.243 28.929z"/><path y="83" x="236" width="32" height="10" rx="5" ry="5" d="M92.957 32.014H101.443A1.929 1.929 0 0 1 103.371 33.943V33.943A1.929 1.929 0 0 1 101.443 35.871H92.957A1.929 1.929 0 0 1 91.029 33.943V33.943A1.929 1.929 0 0 1 92.957 32.014z"/><path y="99" x="227" width="112" height="24" rx="12" ry="12" d="M92.186 38.186H126.129A4.629 4.629 0 0 1 130.757 42.814V42.814A4.629 4.629 0 0 1 126.129 47.443H92.186A4.629 4.629 0 0 1 87.557 42.814V42.814A4.629 4.629 0 0 1 92.186 38.186z"/><path y="102" x="146" width="36" height="16" rx="8" ry="8" d="M59.4 39.343H67.114A3.086 3.086 0 0 1 70.2 42.429V42.429A3.086 3.086 0 0 1 67.114 45.514H59.4A3.086 3.086 0 0 1 56.314 42.429V42.429A3.086 3.086 0 0 1 59.4 39.343z"/><path y="172" x="119" width="62" height="30" rx="15" ry="15" d="M51.686 66.343H64.029A5.786 5.786 0 0 1 69.814 72.129V72.129A5.786 5.786 0 0 1 64.029 77.914H51.686A5.786 5.786 0 0 1 45.9 72.129V72.129A5.786 5.786 0 0 1 51.686 66.343z"/><path y="197" x="0" width="90" height="18" rx="9" ry="9" d="M3.471 75.986H31.243A3.471 3.471 0 0 1 34.714 79.457V79.457A3.471 3.471 0 0 1 31.243 82.929H3.471A3.471 3.471 0 0 1 0 79.457V79.457A3.471 3.471 0 0 1 3.471 75.986z"/><path y="293" x="219" width="30" height="16" rx="8" ry="8" d="M87.557 113.014H92.957A3.086 3.086 0 0 1 96.043 116.1V116.1A3.086 3.086 0 0 1 92.957 119.186H87.557A3.086 3.086 0 0 1 84.471 116.1V116.1A3.086 3.086 0 0 1 87.557 113.014z"/><path y="224" x="31" width="118" height="26" rx="13" ry="13" d="M16.971 86.4H52.457A5.014 5.014 0 0 1 57.471 91.414V91.414A5.014 5.014 0 0 1 52.457 96.429H16.971A5.014 5.014 0 0 1 11.957 91.414V91.414A5.014 5.014 0 0 1 16.971 86.4z"/><path y="260" x="77" width="77" height="36" rx="18" ry="18" d="M36.643 100.286H52.457A6.943 6.943 0 0 1 59.4 107.229V107.229A6.943 6.943 0 0 1 52.457 114.171H36.643A6.943 6.943 0 0 1 29.7 107.229V107.229A6.943 6.943 0 0 1 36.643 100.286z"/><path y="264" x="228" width="44" height="22" rx="11" ry="11" d="M92.186 101.829H100.671A4.243 4.243 0 0 1 104.914 106.071V106.071A4.243 4.243 0 0 1 100.671 110.314H92.186A4.243 4.243 0 0 1 87.943 106.071V106.071A4.243 4.243 0 0 1 92.186 101.829z"/></g><use transform="translate(400)" xlink:href="#clouds"/><animateTransform attributeName="transform" attributeType="XML" type="translate" from="0 0" to="-400 0" dur="10s" repeatCount="indefinite"/></g></g></svg>